<?xml version="1.0" standalone="no"?>
<!DOCTYPE svg PUBLIC "-//W3C//DTD SVG 20010904//EN"
 "http://www.w3.org/TR/2001/REC-SVG-20010904/DTD/svg10.dtd">
<svg version="1.0" xmlns="http://www.w3.org/2000/svg"
 width="567.000000pt" height="567.000000pt" viewBox="0 0 567.000000 567.000000"
 preserveAspectRatio="xMidYMid meet">
<metadata>
Created by potrace 1.11, written by Peter Selinger 2001-2013
</metadata>
<g transform="translate(0.000000,567.000000) scale(0.100000,-0.100000)"
fill="#000000" stroke="none">
<path d="M2610 5559 c-272 -23 -606 -108 -855 -217 -121 -53 -306 -156 -445
-250 -410 -277 -691 -595 -908 -1027 -98 -195 -104 -210 -152 -356 -50 -150
-56 -184 -37 -195 8 -5 24 -27 35 -50 11 -22 28 -46 36 -53 30 -25 156 11 156
43 0 8 -9 35 -20 61 -11 26 -20 53 -20 61 0 20 91 130 151 182 27 24 60 65 73
91 37 71 71 96 148 109 46 9 82 23 118 47 29 19 58 35 65 35 7 0 29 19 49 43
73 84 84 94 132 112 27 10 68 29 92 43 38 22 41 26 29 41 -8 9 -25 45 -38 81
-17 48 -37 79 -76 118 -29 29 -53 57 -53 61 0 18 51 53 104 72 57 20 58 20
129 0 65 -17 79 -18 146 -6 40 7 101 27 134 44 52 27 70 31 141 31 99 0 189
14 269 42 48 16 74 19 126 14 96 -9 112 -36 92 -156 -8 -54 9 -172 32 -217 9
-17 35 -47 59 -66 l42 -35 -44 -11 c-84 -21 -152 -62 -180 -110 -32 -55 -72
-77 -158 -85 -133 -13 -232 -41 -232 -66 0 -5 10 -12 23 -15 44 -14 86 -56
135 -137 68 -114 68 -115 31 -191 -29 -58 -31 -69 -21 -92 19 -40 83 -65 174
-65 96 0 106 4 114 46 5 27 1 42 -19 72 -36 52 -46 83 -56 171 -13 118 9 147
134 176 39 9 93 29 120 45 68 39 197 70 289 70 l76 0 51 -50 c28 -28 66 -57
83 -65 18 -9 51 -35 73 -58 32 -33 44 -56 57 -110 l17 -69 -32 -35 c-17 -20
-39 -55 -49 -78 -18 -42 -61 -85 -86 -85 -35 0 -132 -55 -170 -96 -45 -49 -62
-52 -156 -33 -68 13 -104 27 -151 57 -29 20 -49 25 -90 23 -67 -2 -77 -16 -77
-103 l0 -68 43 -21 c26 -14 74 -25 126 -30 113 -12 329 20 416 60 33 16 101
41 150 57 107 33 131 47 152 88 28 55 97 143 130 166 45 31 189 47 215 23 9
-8 31 -56 47 -107 28 -84 30 -106 37 -294 l7 -203 34 -42 c59 -70 78 -122 113
-307 11 -58 11 -70 -4 -98 -17 -33 -51 -55 -101 -66 -25 -5 -41 1 -91 36 -34
24 -81 64 -106 89 -34 35 -61 52 -111 68 -89 30 -93 36 -74 113 14 58 14 68
-2 132 -20 76 -34 92 -113 132 -105 53 -318 17 -417 -70 -45 -40 -55 -44 -119
-51 -39 -4 -103 -4 -144 0 -61 6 -82 3 -128 -14 -68 -26 -181 -28 -280 -5 -67
15 -71 15 -141 -8 -62 -20 -74 -27 -86 -55 -7 -18 -23 -39 -36 -47 -12 -7 -80
-21 -152 -31 -192 -26 -204 -41 -114 -137 43 -46 51 -50 80 -44 17 3 51 6 74
6 35 0 53 8 108 50 36 27 68 60 72 72 23 82 27 83 345 112 25 3 79 -2 120 -10
100 -19 319 -18 412 1 67 15 79 14 142 -1 80 -19 138 -64 156 -120 6 -18 23
-43 36 -53 14 -11 36 -43 50 -71 16 -33 34 -54 52 -61 15 -6 33 -14 40 -18 16
-7 35 -42 56 -102 12 -32 26 -51 51 -65 20 -11 44 -39 58 -64 13 -25 40 -56
61 -69 37 -25 37 -25 14 -37 -41 -20 -94 -25 -169 -13 -105 16 -106 17 -114
101 -8 88 -38 141 -93 166 -21 9 -53 29 -73 45 -20 15 -62 36 -94 47 -33 11
-69 27 -81 35 -20 13 -25 12 -56 -18 -49 -46 -96 -58 -156 -43 -64 17 -102 38
-134 74 -32 36 -92 53 -112 31 -7 -8 -18 -33 -25 -56 -15 -53 -59 -83 -124
-83 -73 0 -77 -4 -77 -72 0 -60 -12 -98 -31 -98 -29 0 -78 -35 -97 -69 -15
-26 -31 -40 -50 -44 -50 -10 -73 -38 -88 -107 -9 -35 -27 -83 -41 -108 l-26
-44 35 -33 c19 -19 43 -56 53 -82 23 -62 37 -77 84 -91 44 -14 68 -37 96 -95
17 -35 29 -44 85 -67 74 -29 87 -51 40 -70 -35 -14 -176 -8 -209 9 -45 25
-206 244 -222 303 -8 30 -19 43 -50 59 -49 24 -65 58 -74 154 -7 69 -6 71 26
114 42 55 101 90 154 91 22 1 56 6 75 13 32 11 36 18 50 72 15 58 16 60 65 78
53 19 105 61 105 84 0 8 -21 23 -46 35 -70 30 -122 21 -179 -31 -24 -22 -48
-41 -52 -41 -5 0 -32 -22 -60 -49 -42 -38 -53 -56 -53 -79 0 -44 -16 -48 -37
-8 -10 19 -40 54 -67 77 -40 35 -51 41 -65 31 -9 -7 -38 -25 -66 -41 -39 -24
-52 -28 -64 -18 -17 14 -61 111 -61 135 0 48 -22 91 -56 112 -35 20 -36 23
-31 62 3 23 15 54 27 70 l21 29 -32 41 c-21 26 -53 50 -87 65 -75 33 -64 48
33 48 79 0 79 0 102 35 32 46 28 96 -9 123 -27 20 -30 20 -75 5 -104 -36 -135
-49 -154 -67 -31 -29 -69 -32 -109 -10 -19 10 -58 30 -87 44 -51 24 -83 63
-83 100 0 21 -27 75 -53 102 -16 18 -24 20 -41 11 -39 -20 -68 -53 -91 -103
-12 -27 -44 -73 -71 -101 -44 -47 -56 -53 -121 -68 -80 -18 -159 -21 -196 -7
-13 5 -38 28 -54 50 -29 39 -31 40 -37 19 -3 -13 -6 -67 -6 -121 0 -93 1 -97
19 -85 32 20 334 -45 361 -77 11 -13 5 -23 -32 -63 -61 -65 -65 -82 -34 -135
14 -23 37 -64 52 -92 15 -27 48 -83 75 -122 27 -40 65 -106 84 -147 28 -59 45
-81 84 -109 45 -33 50 -40 66 -107 12 -49 29 -87 56 -122 21 -28 53 -87 71
-131 20 -48 48 -95 71 -119 21 -22 51 -68 67 -102 15 -35 41 -78 58 -97 16
-19 50 -65 75 -104 25 -38 57 -81 72 -95 15 -14 36 -43 47 -65 l21 -39 -23
-43 c-16 -30 -32 -45 -56 -53 -19 -7 -55 -23 -81 -37 -33 -19 -65 -27 -118
-31 l-72 -4 -49 48 c-27 27 -64 61 -83 75 -33 25 -35 28 -47 130 -28 232 -47
303 -109 404 -13 22 -31 71 -40 110 -9 38 -19 78 -22 88 -2 10 -26 42 -52 72
-39 45 -50 66 -65 129 -16 68 -23 82 -71 130 -46 48 -55 63 -70 128 -22 90
-29 104 -75 149 -23 23 -44 57 -55 90 -19 56 -56 122 -75 134 -7 4 -21 21 -32
39 l-20 31 6 -115 c12 -226 93 -568 187 -789 207 -485 497 -863 894 -1162 153
-116 398 -256 556 -319 26 -10 66 -28 90 -39 119 -56 392 -130 596 -161 143
-22 366 -37 407 -26 l27 7 -22 30 -22 31 20 26 c34 45 141 39 245 -13 53 -27
83 -31 93 -15 4 6 29 22 56 35 49 25 50 25 111 9 35 -8 71 -20 82 -26 74 -40
596 167 869 344 193 125 301 213 462 374 127 128 184 192 230 262 26 39 27 47
17 76 -9 24 -9 48 -1 94 10 57 9 66 -12 109 -19 38 -30 49 -51 51 -25 3 -46
20 -96 79 -10 12 -40 27 -67 34 -40 10 -62 26 -128 91 -86 86 -81 73 -102 251
-4 26 -14 55 -23 65 -54 55 -53 52 -64 249 -6 103 -10 224 -9 268 1 44 -4 113
-10 153 -11 74 -1 138 25 154 6 4 11 11 11 15 2 26 115 151 148 162 7 2 14 7
17 10 29 33 83 75 99 76 11 1 35 9 53 18 18 9 49 23 69 31 36 14 36 15 43 84
4 38 4 105 0 147 l-7 77 80 -7 c77 -7 82 -6 144 25 35 18 83 46 106 61 23 16
46 29 51 29 17 0 42 37 61 93 18 52 18 60 4 109 -8 29 -16 76 -17 105 -2 41
-16 79 -69 185 -36 74 -77 144 -89 156 -149 142 -160 156 -154 193 7 42 -9 69
-109 189 -59 70 -246 258 -325 325 -61 52 -213 161 -273 196 -32 19 -71 42
-85 51 -15 9 -43 25 -62 36 -19 11 -57 32 -85 47 -142 79 -265 132 -385 164
-47 13 -128 36 -180 52 -145 43 -171 49 -313 70 -155 23 -446 32 -597 18z
m213 -889 c39 -10 119 -26 177 -35 58 -8 127 -22 154 -30 65 -20 146 -23 221
-8 118 24 271 47 310 46 22 0 69 -8 105 -17 36 -9 75 -19 87 -21 13 -3 38 -19
57 -35 l34 -31 39 20 c99 50 131 29 140 -92 l5 -72 -54 -70 c-68 -88 -99 -109
-193 -130 -41 -9 -107 -27 -147 -40 -60 -19 -81 -22 -118 -15 -25 5 -111 6
-192 3 -146 -6 -147 -6 -180 19 -18 14 -51 34 -73 46 -22 11 -51 32 -65 47
-14 15 -55 42 -91 61 -37 18 -82 51 -100 72 -19 22 -61 56 -94 75 -74 43 -105
72 -105 96 0 33 -39 71 -81 77 -21 4 -46 12 -56 19 -15 11 -15 15 -3 30 12 15
25 16 82 11 38 -3 101 -15 141 -26z m1490 -891 c87 -13 138 -41 215 -117 41
-40 62 -70 71 -102 7 -25 21 -61 30 -80 16 -32 16 -40 2 -105 -9 -38 -35 -106
-58 -151 l-42 -81 -75 -31 c-101 -43 -193 -56 -266 -38 -30 8 -68 17 -83 20
-17 4 -66 44 -122 99 -81 80 -99 104 -126 168 -34 80 -48 135 -49 187 0 28 13
47 78 118 68 75 84 87 137 104 69 22 180 25 288 9z m-3579 -861 c7 -12 5 -23
-8 -43 -17 -25 -18 -26 -31 -8 -18 23 -19 45 -3 61 15 15 28 11 42 -10z m3255
-2 c17 -11 83 -145 76 -157 -11 -17 -84 -49 -113 -49 -29 0 -146 33 -170 49
-10 6 -7 20 13 62 13 30 25 61 25 70 0 30 22 38 90 35 37 -2 72 -6 79 -10z
m-1363 -531 c8 -10 11 -21 9 -25 -3 -4 -38 -11 -79 -15 -114 -10 -138 4 -96
57 19 25 20 26 87 13 41 -8 71 -19 79 -30z m-1309 -296 c2 -7 -12 -32 -31 -54
l-33 -39 -13 23 c-16 32 -17 86 -1 105 13 15 16 15 45 -2 17 -10 32 -25 33
-33z m1108 9 c14 -6 25 -15 25 -20 0 -15 -106 -79 -122 -73 -9 4 -24 22 -34
41 l-19 36 25 20 c26 21 73 20 125 -4z m488 -252 c18 -7 49 -25 71 -39 50 -35
89 -45 216 -58 138 -13 182 -30 255 -99 33 -31 75 -67 92 -79 22 -15 36 -35
43 -62 15 -56 40 -76 110 -90 33 -6 63 -15 66 -20 2 -4 -7 -16 -21 -25 -19
-12 -46 -16 -114 -15 -88 2 -89 1 -115 -30 -37 -44 -34 -71 16 -113 23 -20 45
-36 49 -36 4 0 18 -19 32 -42 14 -24 39 -56 55 -72 l31 -29 33 20 c32 19 40
29 75 108 l18 40 65 3 c82 4 98 0 138 -37 38 -35 41 -66 13 -128 -30 -65 -52
-74 -205 -83 -74 -5 -162 -16 -196 -26 -77 -21 -191 -15 -275 16 -44 16 -85
23 -150 24 -78 1 -98 5 -150 31 -49 24 -64 38 -83 75 -22 45 -22 47 -7 120 10
49 13 94 9 133 -8 67 -16 75 -108 107 -73 25 -77 28 -131 109 -53 81 -67 127
-63 210 3 61 4 64 38 82 42 23 145 26 193 5z m-549 -55 c10 -11 40 -29 68 -41
45 -19 87 -53 88 -71 1 -24 -34 -43 -104 -55 -69 -12 -81 -12 -102 3 -34 22
-39 56 -19 111 29 76 40 85 69 53z m-5 -315 c13 -7 38 -38 56 -67 26 -45 39
-57 81 -72 27 -10 65 -31 85 -47 24 -19 58 -33 100 -41 75 -14 84 -20 110 -70
25 -50 24 -61 -8 -99 -26 -32 -28 -32 -97 -28 -85 6 -110 18 -200 97 -38 34
-88 73 -110 87 -34 22 -80 75 -141 159 -17 25 7 69 45 82 45 15 50 15 79 -1z"/>
<path d="M4166 3524 c-68 -74 -68 -75 -50 -95 11 -12 41 -32 68 -46 38 -19 54
-23 70 -15 32 15 86 62 86 76 0 15 -89 156 -98 156 -4 -1 -38 -35 -76 -76z"/>
<path d="M2578 3883 c-16 -18 -32 -53 -43 -97 -16 -68 -16 -68 5 -91 39 -42
72 -49 117 -26 62 31 65 38 52 119 -13 76 -33 105 -79 117 -20 5 -31 0 -52
-22z"/>
</g>
</svg>
