<?xml version="1.0" standalone="no"?>
<!DOCTYPE svg PUBLIC "-//W3C//DTD SVG 20010904//EN"
 "http://www.w3.org/TR/2001/REC-SVG-20010904/DTD/svg10.dtd">
<svg version="1.0" xmlns="http://www.w3.org/2000/svg"
 width="192.000000pt" height="192.000000pt" viewBox="0 0 192.000000 192.000000"
 preserveAspectRatio="xMidYMid meet">
<metadata>
Created by potrace 1.11, written by Peter Selinger 2001-2013
</metadata>
<g transform="translate(0.000000,192.000000) scale(0.100000,-0.100000)"
fill="#000000" stroke="none">
<path d="M737 1856 c-206 -55 -407 -190 -523 -352 -47 -66 -128 -229 -138
-280 -9 -41 20 -80 52 -70 17 6 20 12 16 36 -5 24 2 38 46 88 33 38 63 62 81
66 16 3 45 20 66 39 21 18 50 38 65 45 26 11 27 14 16 39 -7 16 -21 38 -32 50
-11 13 -18 25 -15 27 19 16 51 23 91 19 31 -4 56 0 77 10 17 8 39 13 48 11 10
-3 42 2 72 10 73 19 106 8 98 -33 -7 -33 9 -101 23 -101 18 0 11 -18 -9 -25
-10 -3 -33 -19 -50 -35 -21 -20 -42 -30 -63 -31 -18 0 -42 -4 -53 -8 -19 -8
-19 -8 3 -20 34 -18 62 -81 49 -110 -9 -19 -8 -26 8 -37 25 -18 74 -18 81 0 3
8 -2 26 -11 39 -9 15 -15 40 -13 58 3 30 9 35 53 52 28 11 70 24 95 30 43 10
48 8 90 -22 61 -44 73 -74 47 -118 -11 -19 -31 -39 -45 -44 -13 -5 -35 -18
-48 -28 -19 -15 -32 -17 -59 -11 -20 4 -42 13 -50 20 -22 18 -55 3 -55 -25 0
-35 33 -48 104 -43 97 8 180 43 212 89 19 28 36 40 61 45 19 4 38 3 42 -2 18
-20 31 -80 31 -141 0 -48 5 -70 20 -91 13 -18 21 -46 23 -81 2 -46 -1 -54 -20
-61 -16 -7 -29 -1 -60 24 -21 18 -48 36 -61 40 -19 6 -22 13 -17 35 19 86 -89
133 -166 72 -26 -20 -119 -33 -231 -31 -56 1 -70 -2 -85 -19 -11 -13 -35 -23
-65 -27 -57 -8 -66 -18 -42 -45 27 -30 61 -24 105 21 l39 39 167 0 167 -1 33
-36 c18 -20 33 -41 33 -48 0 -7 9 -16 20 -19 11 -3 20 -13 20 -20 0 -8 16 -31
35 -52 19 -21 35 -42 35 -46 0 -5 -19 -7 -42 -5 -41 3 -44 5 -56 44 -11 35
-21 45 -65 67 -46 22 -53 23 -73 10 -24 -16 -66 -9 -85 13 -17 21 -47 17 -54
-6 -4 -13 -18 -23 -36 -27 -22 -4 -29 -11 -29 -29 0 -13 -4 -24 -9 -24 -4 0
-20 -11 -35 -25 -15 -14 -30 -25 -34 -25 -4 0 -13 -18 -19 -40 -11 -35 -11
-43 8 -74 11 -19 29 -38 39 -41 11 -3 22 -14 25 -25 3 -10 17 -21 30 -24 39
-10 29 -26 -15 -26 -43 0 -77 27 -107 85 -9 17 -24 38 -34 48 -41 38 -9 117
46 117 17 0 29 8 36 24 6 13 22 29 35 35 31 14 31 29 -1 37 -18 5 -35 -2 -65
-26 -22 -17 -40 -38 -40 -46 0 -10 -9 -5 -24 13 -22 26 -25 27 -51 13 -23 -12
-27 -12 -35 0 -6 8 -10 22 -10 30 0 9 -7 26 -16 38 -9 14 -14 33 -10 47 5 18
0 28 -22 44 l-27 20 32 1 c23 0 33 6 38 21 12 37 -10 45 -63 23 -43 -19 -51
-19 -78 -6 -19 9 -35 27 -43 48 -7 19 -16 34 -22 34 -5 0 -23 -19 -40 -42 -34
-48 -48 -56 -101 -57 -25 -1 -40 5 -47 17 -8 14 -10 10 -11 -20 l0 -37 60 -12
c67 -13 77 -21 55 -39 -8 -7 -15 -19 -15 -28 0 -20 91 -173 107 -179 7 -3 13
-10 13 -17 0 -10 40 -88 85 -165 11 -18 39 -58 62 -88 23 -31 39 -61 36 -69
-6 -16 -45 -38 -84 -47 -41 -10 -85 43 -94 113 -4 30 -15 71 -25 90 -9 20 -21
50 -25 68 -3 17 -11 35 -17 38 -5 3 -18 25 -29 48 -17 36 -30 62 -61 116 -4 8
-20 38 -35 65 l-28 50 -3 -40 c-4 -53 38 -213 78 -300 50 -106 95 -172 179
-258 151 -156 353 -255 563 -276 92 -9 109 -6 101 15 -8 22 25 28 66 12 32
-13 42 -13 64 -2 18 10 33 11 51 4 34 -13 117 10 218 60 107 53 191 114 270
198 62 66 66 73 64 114 -1 36 -7 50 -31 71 -17 15 -35 27 -42 27 -25 0 -74 61
-80 98 -4 20 -12 46 -19 57 -8 13 -14 63 -15 143 l-2 123 37 38 c21 22 55 47
76 56 41 19 55 47 44 90 -6 23 -3 25 27 25 40 0 115 42 122 69 12 48 -27 148
-83 210 -16 18 -30 41 -30 51 0 22 -98 130 -169 184 -97 75 -223 136 -343 167
-147 39 -317 40 -451 5z m235 -277 c29 -6 69 -15 89 -20 23 -6 65 -5 118 3 66
9 89 9 124 -3 23 -7 54 -12 70 -10 25 2 27 0 27 -37 0 -70 -79 -112 -212 -112
-61 0 -73 4 -126 38 -32 20 -69 47 -82 60 -13 12 -28 22 -32 22 -5 0 -14 11
-20 25 -6 14 -19 25 -30 25 -10 0 -18 5 -18 10 0 13 25 13 92 -1z m544 -324
c95 -73 49 -215 -69 -215 -62 0 -113 38 -141 104 -23 55 -20 70 19 105 32 27
43 31 97 31 50 0 67 -5 94 -25z m-1266 -275 c0 -5 -4 -10 -10 -10 -5 0 -10 5
-10 10 0 6 5 10 10 10 6 0 10 -4 10 -10z m1115 -19 c14 -28 14 -30 -5 -36 -19
-6 -80 2 -80 10 0 2 4 15 10 29 14 37 55 35 75 -3z m-481 -150 c3 -5 -1 -12
-10 -15 -27 -10 -44 -7 -44 9 0 16 45 21 54 6z m-440 -100 c3 -5 0 -14 -8 -20
-10 -9 -15 -8 -19 3 -9 22 15 37 27 17z m370 3 c13 -5 14 -9 5 -20 -20 -25
-60 -10 -44 16 7 12 17 12 39 4z m192 -98 c11 -8 38 -17 60 -21 21 -3 48 -8
59 -10 25 -5 78 -52 94 -82 6 -13 21 -23 31 -23 11 0 20 -4 20 -10 0 -5 -18
-10 -39 -10 -56 0 -60 -23 -15 -70 40 -41 59 -42 68 -4 5 18 13 24 35 24 16 0
37 -7 46 -16 14 -14 14 -19 2 -38 -20 -29 -154 -53 -215 -37 -23 6 -55 11 -71
11 -16 0 -39 8 -52 19 -19 15 -22 26 -20 70 2 50 1 52 -31 65 -18 8 -41 28
-50 44 -18 30 -24 83 -11 95 12 12 68 7 89 -7z m-185 -22 c36 -18 33 -38 -5
-42 -35 -4 -47 7 -40 36 7 26 7 26 45 6z m-6 -113 c3 -10 32 -30 66 -46 63
-28 79 -46 60 -69 -16 -19 -59 -8 -106 28 -52 41 -74 67 -75 89 0 24 47 23 55
-2z"/>
<path d="M1409 1194 c-24 -25 -24 -26 -5 -40 25 -18 40 -18 55 0 10 12 9 20
-4 40 -10 14 -18 26 -19 26 -2 0 -13 -12 -27 -26z"/>
<path d="M862 1291 c-8 -23 -7 -32 3 -41 35 -29 74 20 45 56 -19 22 -37 17
-48 -15z"/>
</g>
</svg>
