<?xml version="1.0" encoding="UTF-8" standalone="no"?>
<svg
   viewBox="0 0 550 350"
   version="1.1"
   id="svg21"
   sodipodi:docname="logo_embedded_font.svg"
   width="550"
   height="350"
   inkscape:version="1.4.2 (ebf0e940d0, 2025-05-08)"
   inkscape:export-filename="logo.png"
   inkscape:export-xdpi="229.69362"
   inkscape:export-ydpi="229.69362"
   xmlns:inkscape="http://www.inkscape.org/namespaces/inkscape"
   xmlns:sodipodi="http://sodipodi.sourceforge.net/DTD/sodipodi-0.dtd"
   xmlns="http://www.w3.org/2000/svg"
   xmlns:svg="http://www.w3.org/2000/svg">
  <sodipodi:namedview
     id="namedview21"
     pagecolor="#ffffff"
     bordercolor="#666666"
     borderopacity="1.0"
     inkscape:showpageshadow="2"
     inkscape:pageopacity="0.0"
     inkscape:pagecheckerboard="0"
     inkscape:deskcolor="#d1d1d1"
     inkscape:zoom="1.4142136"
     inkscape:cx="67.882252"
     inkscape:cy="223.44574"
     inkscape:window-width="1920"
     inkscape:window-height="1052"
     inkscape:window-x="0"
     inkscape:window-y="0"
     inkscape:window-maximized="1"
     inkscape:current-layer="svg21" />
  <defs
     id="defs6">
    <linearGradient
       id="flashlight-body-grad"
       x1="0"
       y1="0"
       x2="59.160797"
       y2="0"
       gradientTransform="scale(1.4790199,0.6761234)"
       gradientUnits="userSpaceOnUse">
      <stop
         offset="0%"
         style="stop-color:#5a5a5a;stop-opacity:1"
         id="stop1" />
      <stop
         offset="100%"
         style="stop-color:#333333;stop-opacity:1"
         id="stop2" />
    </linearGradient>
    <radialGradient
       id="light-beam-grad"
       cx="185.23907"
       cy="248.32774"
       r="297.99329"
       fx="179.41991"
       fy="250.46935"
       gradientTransform="matrix(1.3287841,-0.00949158,0.00409862,0.5870663,-120.90499,-10.362315)"
       gradientUnits="userSpaceOnUse">
      <stop
         offset="0%"
         style="stop-color:#ffb347;stop-opacity:0.9"
         id="stop3" />
      <stop
         offset="100%"
         style="stop-color:#ff8c00;stop-opacity:0.1"
         id="stop4" />
    </radialGradient>
    <linearGradient
       id="text-glow"
       x1="-95.208725"
       y1="-59.051262"
       x2="-95.208725"
       y2="16.273335"
       gradientTransform="matrix(1.3749088,0,0,0.72732094,-4.2469238,0.30569779)"
       gradientUnits="userSpaceOnUse">
      <stop
         offset="0%"
         style="stop-color:#ffb347;stop-opacity:1"
         id="stop5" />
      <stop
         offset="100%"
         style="stop-color:#ff8c00;stop-opacity:1"
         id="stop6" />
    </linearGradient>
    <filter
       inkscape:collect="always"
       style="color-interpolation-filters:sRGB"
       id="filter32"
       x="-0.088323956"
       y="-0.088323956"
       width="1.1766479"
       height="1.1766479">
      <feGaussianBlur
         inkscape:collect="always"
         stdDeviation="0.73603299"
         id="feGaussianBlur32" />
    </filter>
    <filter
       inkscape:collect="always"
       style="color-interpolation-filters:sRGB"
       id="filter33"
       x="-0.088323956"
       y="-0.088323956"
       width="1.1766479"
       height="1.1766479">
      <feGaussianBlur
         inkscape:collect="always"
         stdDeviation="0.73603299"
         id="feGaussianBlur33" />
    </filter>
    <filter
       inkscape:collect="always"
       style="color-interpolation-filters:sRGB"
       id="filter34"
       x="-0.088323956"
       y="-0.088323956"
       width="1.1766479"
       height="1.1766479">
      <feGaussianBlur
         inkscape:collect="always"
         stdDeviation="0.73603299"
         id="feGaussianBlur34" />
    </filter>
    <filter
       inkscape:collect="always"
       style="color-interpolation-filters:sRGB"
       id="filter76"
       x="-0.055761468"
       y="-0.18604149"
       width="1.1115229"
       height="1.372083">
      <feGaussianBlur
         inkscape:collect="always"
         stdDeviation="0.54262099"
         id="feGaussianBlur76" />
    </filter>
    <filter
       inkscape:collect="always"
       style="color-interpolation-filters:sRGB"
       id="filter77"
       x="-0.18604149"
       y="-0.050873603"
       width="1.372083"
       height="1.1017472">
      <feGaussianBlur
         inkscape:collect="always"
         stdDeviation="0.54262099"
         id="feGaussianBlur77" />
    </filter>
    <filter
       inkscape:collect="always"
       style="color-interpolation-filters:sRGB"
       id="filter78"
       x="-0.048362057"
       y="-0.18604149"
       width="1.0967241"
       height="1.372083">
      <feGaussianBlur
         inkscape:collect="always"
         stdDeviation="0.54262099"
         id="feGaussianBlur78" />
    </filter>
  </defs>
  <g
     transform="translate(269.98713,153.93362)"
     fill="#e0e0e0"
     font-family="monospace"
     font-size="250px"
     text-anchor="middle"
     dominant-baseline="middle"
     id="g7">
    <path
       d="m -57.988031,90.851995 q -23,-0.25 -36.25,-10 -13.249999,-9.75 -13.249999,-29.75 v -36.75 q 0,-12.7499995 -8,-17.9999995 -7.75,-5.5 -22.5,-5.5 V -27.398005 q 14.75,-0.25 22.5,-5.5 8,-5.25 8,-17.75 v -37 q 0,-19.999995 13.749999,-29.749995 13.75,-9.75 35.75,-9.75 v 18 q -13,0.25 -20.5,5.75 -7.25,5.499995 -7.25,17.749995 v 36 q 0,25.75 -27.249999,30.5 v 1.5 q 27.249999,4.75 27.249999,30.5 v 36.75 q 0,12.25 7.25,17.5 7.25,5.5 20.5,5.75 z"
       id="text6"
       aria-label="{" />
    <path
       d="m 118.01398,72.851995 q 13,-0.5 20.25,-6 7.5,-5.25 7.5,-17.5 v -36.25 q 0,-25.75 27.25,-30.5 v -1.5 q -27.25,-4.75 -27.25,-30.5 v -36.5 q 0,-12.25 -7.25,-17.499995 -7.25,-5.5 -20.5,-5.75 v -18 q 23,0.25 36.25,10 13.25,9.75 13.25,29.749995 v 36.5 q 0,12.75 7.75,18.25 8,5.25 22.75,5.25 v 18.2500005 q -14.75,0.25 -22.75,5.5 -7.75,5.25 -7.75,17.7499995 v 37.25 q 0,19.75 -13.75,29.5 -13.75,10 -35.75,10 z"
       id="text7"
       aria-label="}" />
  </g>
  <g
     transform="translate(210,33.933617)"
     id="g19">
    <path
       d="m 20,0 h 100 l 40,40 V 200 H 20 Z"
       fill="#444444"
       id="path7"
       sodipodi:nodetypes="cccccc" />
    <path
       d="m 120,0 v 40 h 40 z"
       fill="#555555"
       id="path8" />
    <g
       fill="#777777"
       id="g18">
      <rect
         x="40"
         y="30"
         width="20"
         height="20"
         id="rect8" />
      <rect
         x="40"
         y="60"
         width="20"
         height="20"
         id="rect9" />
      <line
         x1="50"
         y1="50"
         x2="50"
         y2="60"
         stroke="#777777"
         stroke-width="4"
         id="line9" />
      <line
         x1="60"
         y1="40"
         x2="80"
         y2="40"
         stroke="#777777"
         stroke-width="4"
         id="line10" />
      <rect
         x="80"
         y="30"
         width="20"
         height="20"
         id="rect10" />
      <line
         x1="50"
         y1="80"
         x2="50"
         y2="100"
         stroke="#777777"
         stroke-width="4"
         id="line11" />
      <line
         x1="50"
         y1="102"
         x2="50"
         y2="122"
         stroke="#777777"
         stroke-width="4"
         id="line11-5" />
      <line
         x1="50"
         y1="121"
         x2="50"
         y2="141"
         stroke="#777777"
         stroke-width="4"
         id="line11-5-2" />
      <line
         x1="50"
         y1="141"
         x2="50"
         y2="161"
         stroke="#777777"
         stroke-width="4"
         id="line11-5-2-7" />
      <line
         x1="48"
         y1="100"
         x2="78"
         y2="100"
         stroke="#777777"
         stroke-width="4"
         id="line12" />
      <line
         x1="86"
         y1="100"
         x2="106"
         y2="100"
         stroke="#777777"
         stroke-width="4"
         id="line13" />
      <line
         x1="78"
         y1="110"
         x2="78"
         y2="130"
         stroke="#777777"
         stroke-width="4"
         id="line14" />
      <line
         x1="76"
         y1="130"
         x2="96"
         y2="130"
         stroke="#777777"
         stroke-width="4"
         id="line15" />
      <g
         id="g24">
        <rect
           x="66"
           y="90.104988"
           width="20"
           height="20"
           id="rect12" />
        <rect
           x="106"
           y="90"
           width="20"
           height="20"
           id="rect13" />
        <rect
           x="96"
           y="120"
           width="20"
           height="20"
           id="rect15" />
      </g>
      <line
         x1="116"
         y1="130"
         x2="136"
         y2="130"
         stroke="#777777"
         stroke-width="4"
         id="line16" />
      <rect
         x="135.68503"
         y="119.79002"
         width="20"
         height="20"
         id="rect16" />
      <rect
         x="40"
         y="160"
         width="20"
         height="20"
         id="rect17" />
      <line
         x1="60"
         y1="170"
         x2="80"
         y2="170"
         stroke="#777777"
         stroke-width="4"
         id="line17" />
      <rect
         x="80"
         y="160"
         width="20"
         height="20"
         id="rect18" />
      <g
         id="g26">
        <rect
           x="66"
           y="90.104988"
           width="20"
           height="20"
           id="rect24" />
        <rect
           x="106"
           y="90"
           width="20"
           height="20"
           id="rect25" />
        <rect
           x="96"
           y="120"
           width="20"
           height="20"
           id="rect26" />
        <rect
           x="66"
           y="90.104988"
           width="20"
           height="20"
           id="rect30"
           style="fill:#ff9955;filter:url(#filter34)" />
        <rect
           x="106"
           y="90"
           width="20"
           height="20"
           id="rect31"
           style="fill:#ff9955;filter:url(#filter33)" />
        <rect
           x="96"
           y="120"
           width="20"
           height="20"
           id="rect32"
           style="fill:#ff9955;filter:url(#filter32)" />
      </g>
      <line
         x1="86"
         y1="100"
         x2="106"
         y2="100"
         stroke="#777777"
         stroke-width="4"
         id="line34"
         style="fill:#ffe6d5" />
      <line
         x1="78"
         y1="110"
         x2="78"
         y2="130"
         stroke="#777777"
         stroke-width="4"
         id="line35"
         style="fill:#ffe6d5" />
      <line
         x1="76"
         y1="130"
         x2="96"
         y2="130"
         stroke="#777777"
         stroke-width="4"
         id="line36"
         style="fill:#ffe6d5" />
      <g
         id="line60"
         style="opacity:1;filter:url(#filter78)">
        <path
           style="baseline-shift:baseline;display:inline;overflow:visible;vector-effect:none;fill:#ffe6d5;enable-background:accumulate;stop-color:#000000;stop-opacity:1"
           d="m 86,100 h 20"
           id="path75" />
        <path
           style="baseline-shift:baseline;display:inline;overflow:visible;vector-effect:none;fill:#ff9955;enable-background:accumulate;stop-color:#000000;stop-opacity:1"
           d="m 86,96.5 c -0.999671,2.19449 -6.643838,3.74391 0,7 h 20 c 7.98893,-2.33333 0.82072,-4.666667 0,-7 z"
           id="path76"
           sodipodi:nodetypes="ccccc" />
      </g>
      <g
         id="line61"
         style="opacity:1;mix-blend-mode:normal;filter:url(#filter77)">
        <path
           style="baseline-shift:baseline;display:inline;overflow:visible;vector-effect:none;fill:#ffe6d5;enable-background:accumulate;stop-color:#000000;stop-opacity:1"
           d="m 78,110 v 20"
           id="path73" />
        <path
           style="baseline-shift:baseline;display:inline;overflow:visible;vector-effect:none;fill:#ff9955;enable-background:accumulate;stop-color:#000000;stop-opacity:1"
           d="m 74.5,110 v 20 c 2.223084,5.46287 4.614928,2.02213 7,0 v -20 c -2.333333,-2.46239 -4.666667,-4.47991 -7,0 z"
           id="path74"
           sodipodi:nodetypes="ccccc" />
      </g>
      <g
         id="line62"
         style="opacity:1;mix-blend-mode:normal;filter:url(#filter76)">
        <path
           style="baseline-shift:baseline;display:inline;overflow:visible;vector-effect:none;fill:#ffe6d5;enable-background:accumulate;stop-color:#000000;stop-opacity:1"
           d="M 76,130 H 96"
           id="path71" />
        <path
           style="baseline-shift:baseline;display:inline;overflow:visible;vector-effect:none;fill:#ff9955;enable-background:accumulate;stop-color:#000000;stop-opacity:1"
           d="m 76,126.5 c -1.20384,1.78978 -2.965729,6.50015 0.710629,6.99464 L 96,133.5 c 1.552648,-2.4812 3.262704,-4.9774 0,-7 z"
           id="path72"
           sodipodi:nodetypes="ccccc" />
      </g>
    </g>
  </g>
  <g
     transform="translate(50.052856,113.93362)"
     id="g20">
    <path
       d="m 0,10 c 0,0 30,-5 50,0 L 60,0 h 20 c 10,10 10,30 0,40 H 60 L 50,30 C 30,35 0,30 0,30 Z"
       fill="url(#flashlight-body-grad)"
       id="path19"
       style="fill:url(#flashlight-body-grad)" />
    <ellipse
       cx="80"
       cy="20"
       rx="10"
       ry="20"
       fill="#ffb347"
       id="ellipse19" />
  </g>
  <path
     d="M 124.10349,117.8606 C 132.50923,95.058817 467.69714,46.191231 467.69714,46.191231 L 467.3264,220.88742 c 0,0 -283.29897,-35.51924 -338.48044,-67.26924 0,0 -8.64578,-2.55956 -8.89294,-20.12206 0.34953,-12.37437 4.15047,-15.63552 4.15047,-15.63552 z"
     fill="url(#light-beam-grad)"
     style="mix-blend-mode:screen;fill:url(#light-beam-grad);stroke-width:0.820169"
     id="path20"
     sodipodi:nodetypes="cccccc" />
  <g
     transform="translate(254.19414,311.07293)"
     font-family="Arial, sans-serif"
     font-weight="bold"
     font-size="60px"
     text-anchor="middle"
     id="g21">
    <path
       d="m -135.15024,-30.807584 h 7.67578 v 4.570313 c 0.99609,-1.5625 2.34375,-2.832031 4.04297,-3.808594 1.69922,-0.976563 3.58399,-1.464844 5.6543,-1.464844 3.61328,0 6.67969,1.416016 9.19922,4.248047 2.51953,2.832031 3.77929,6.777344 3.77929,11.835938 0,5.195312 -1.26953,9.2382811 -3.80859,12.1289061 -2.53906,2.87109373 -5.61523,4.3066406 -9.22851,4.3066406 -1.71875,0 -3.28125,-0.34179688 -4.6875,-1.02539065 -1.38672,-0.68359377 -2.85157,-1.85546875 -4.39454,-3.51562495 V 12.141635 h -8.23242 z m 8.14453,15.029297 c 0,3.496094 0.69336,6.0839847 2.08008,7.7636722 1.38672,1.6601563 3.07617,2.4902344 5.06836,2.4902344 1.91406,0 3.50586,-0.7617188 4.77539,-2.2851563 1.26953,-1.5429689 1.9043,-4.0625003 1.9043,-7.5585933 0,-3.261719 -0.6543,-5.683594 -1.96289,-7.265625 -1.30859,-1.582031 -2.92969,-2.373047 -4.86328,-2.373047 -2.01172,0 -3.68164,0.78125 -5.00977,2.34375 -1.32813,1.542969 -1.99219,3.83789 -1.99219,6.884765 z M -77.786957,0.30569768 V -4.3525054 c -1.132813,1.6601562 -2.626953,2.9687499 -4.482422,3.9257812 -1.835937,0.95703127 -3.779297,1.4355469 -5.830078,1.4355469 -2.089843,0 -3.964843,-0.45898438 -5.625,-1.37695315 -1.660156,-0.91796875 -2.861328,-2.20703125 -3.603515,-3.86718745 -0.742188,-1.6601563 -1.113282,-3.9550783 -1.113282,-6.8847661 v -19.6875 h 8.232422 v 14.296875 c 0,4.375 0.146484,7.0605473 0.439453,8.0566411 0.3125,0.9765625 0.869141,1.7578125 1.669922,2.34375 0.800781,0.5664062 1.816406,0.8496093 3.046875,0.8496093 1.40625,0 2.666016,-0.3808594 3.779297,-1.1425781 1.113281,-0.78125 1.875,-1.7382812 2.285156,-2.8710937 0.410157,-1.1523436 0.615235,-3.9550786 0.615235,-8.4082036 v -13.125 h 8.232422 V 0.30569768 Z m 15.820313,0 V -42.643521 h 8.232422 v 15.46875 c 2.539062,-2.890625 5.546874,-4.335938 9.023437,-4.335938 3.789063,0 6.923828,1.376953 9.404297,4.13086 2.480469,2.734375 3.720703,6.669921 3.720703,11.80664 0,5.3125 -1.269531,9.4042973 -3.808594,12.2753911 -2.519531,2.87109373 -5.585937,4.3066406 -9.199218,4.3066406 -1.777344,0 -3.535157,-0.43945313 -5.273438,-1.3183594 -1.71875,-0.8984375 -3.203125,-2.2167968 -4.453125,-3.9550781 v 4.57031248 z m 8.173828,-16.23046868 c 0,3.222656 0.507812,5.605468 1.523437,7.1484374 1.425781,2.1875 3.320313,3.28125 5.683594,3.28125 1.816406,0 3.359375,-0.7714844 4.628906,-2.3144531 1.289063,-1.5625002 1.933594,-4.0136723 1.933594,-7.3535153 0,-3.554688 -0.644531,-6.113282 -1.933594,-7.675782 -1.289062,-1.582031 -2.939453,-2.373046 -4.951172,-2.373046 -1.972656,0 -3.613281,0.771484 -4.921875,2.314453 -1.308593,1.523437 -1.96289,3.847656 -1.96289,6.972656 z"
       id="text20"
       style="fill:url(#text-glow)"
       aria-label="pub"
       sodipodi:nodetypes="cccsssscscccccscscssscscccssssccsccsccsccccccccscscsccccscscscscs" />
    <path
       d="M -31.347153,8.751565 V 3.4195337 H 2.8715973 V 8.751565 Z m 35.3320315,-20.742188 8.2617185,-1.259765 c 0.351563,1.601563 1.064453,2.822266 2.138672,3.6621092 1.074219,0.8203125 2.578125,1.2304688 4.511719,1.2304688 2.128906,0 3.730468,-0.390625 4.804687,-1.171875 0.722657,-0.546875 1.083985,-1.279297 1.083985,-2.197266 0,-0.625 -0.195313,-1.142578 -0.585938,-1.552734 -0.410156,-0.390625 -1.328125,-0.751953 -2.753906,-1.083984 -6.640625,-1.464844 -10.849609,-2.802735 -12.6269531,-4.013672 -2.4609375,-1.679688 -3.6914062,-4.013672 -3.6914062,-7.001953 0,-2.695313 1.0644531,-4.960938 3.1933593,-6.796875 2.128906,-1.835938 5.429687,-2.753907 9.902344,-2.753907 4.257813,0 7.421875,0.693359 9.492187,2.080078 2.070313,1.386719 3.496094,3.437501 4.277344,6.152344 l -7.763672,1.435547 c -0.332031,-1.210937 -0.966797,-2.138672 -1.904297,-2.783203 -0.917969,-0.644531 -2.236328,-0.966797 -3.955078,-0.966797 -2.167969,0 -3.720703,0.302734 -4.658203,0.908203 -0.625,0.429687 -0.9375,0.986328 -0.9375,1.669922 0,0.585937 0.273438,1.083984 0.820313,1.494141 0.742187,0.546875 3.300781,1.318359 7.675781,2.314453 4.394531,0.996093 7.460938,2.216796 9.199219,3.662109 1.71875,1.464844 2.578125,3.50586 2.578125,6.123047 0,2.8515626 -1.191406,5.3027345 -3.574219,7.3535157 -2.382813,2.0507813 -5.908203,3.0761719 -10.576172,3.0761719 -4.238281,0 -7.597656,-0.859375 -10.0781251,-2.578125 -2.4609375,-1.71875 -4.0722656,-4.0527345 -4.8339844,-7.0019536 z m 34.3652345,-7.11914 c 0,-2.734375 0.673828,-5.38086 2.021484,-7.939453 1.347657,-2.558594 3.251954,-4.511719 5.712891,-5.859375 2.480469,-1.347657 5.244141,-2.021485 8.291016,-2.021485 4.707031,0 8.564452,1.533203 11.572265,4.59961 3.007813,3.046875 4.511719,6.904296 4.511719,11.572265 0,4.707031 -1.523438,8.613281 -4.570313,11.7187504 -3.027343,3.0859375 -6.845703,4.6289062 -11.455078,4.6289062 -2.851562,0 -5.576171,-0.6445312 -8.173828,-1.9335937 -2.578125,-1.2890625 -4.541015,-3.1738282 -5.888672,-5.6542969 -1.347656,-2.5 -2.021484,-5.537109 -2.021484,-9.111328 z m 8.4375,0.439453 c 0,3.085937 0.732422,5.449219 2.197266,7.089844 1.464843,1.6406248 3.271484,2.4609372 5.419921,2.4609372 2.148438,0 3.945313,-0.8203124 5.390625,-2.4609372 1.464844,-1.640625 2.197266,-4.023438 2.197266,-7.148438 0,-3.046875 -0.732422,-5.390625 -2.197266,-7.03125 -1.445312,-1.640625 -3.242187,-2.460937 -5.390625,-2.460937 -2.148437,0 -3.955078,0.820312 -5.419921,2.460937 -1.464844,1.640625 -2.197266,4.003907 -2.197266,7.089844 z m 50.595703,15.5566406 v -4.6582031 c -1.132813,1.6601563 -2.626953,2.96875 -4.482422,3.9257812 -1.835937,0.9570313 -3.779297,1.4355469 -5.830078,1.4355469 -2.089844,0 -3.964844,-0.4589844 -5.625,-1.3769531 -1.660156,-0.9179687 -2.861328,-2.2070312 -3.603516,-3.8671875 -0.742187,-1.660156 -1.113281,-3.955078 -1.113281,-6.884766 v -19.6875 h 8.232422 v 14.296875 c 0,4.375 0.146484,7.060547 0.439453,8.056641 0.3125,0.976563 0.869141,1.757813 1.669922,2.34375 0.800781,0.5664063 1.816406,0.8496094 3.046875,0.8496094 1.40625,0 2.666016,-0.3808594 3.779297,-1.1425782 1.113281,-0.7812502 1.875,-1.7382812 2.285156,-2.8710942 0.410157,-1.152343 0.615235,-3.955078 0.615235,-8.408203 v -13.125 h 8.232421 v 31.1132816 z m 24.052734,0 h -8.23242 V -34.226951 h 7.64648 v 4.423828 c 1.30859,-2.089843 2.48047,-3.466796 3.51563,-4.130859 1.05469,-0.664063 2.24609,-0.996094 3.57422,-0.996094 1.875,0 3.68164,0.517578 5.41992,1.552735 l -2.54883,7.177734 c -1.38672,-0.898437 -2.67578,-1.347656 -3.86719,-1.347656 -1.15234,0 -2.1289,0.322266 -2.92968,0.966797 -0.80079,0.625 -1.43555,1.767578 -1.9043,3.427734 -0.44922,1.660156 -0.67383,5.136719 -0.67383,10.429688 z m 42.59766,-21.9140626 -8.11524,1.464844 c -0.27343,-1.621094 -0.89843,-2.841797 -1.875,-3.66211 -0.95703,-0.820312 -2.20703,-1.230468 -3.75,-1.230468 -2.05078,0 -3.6914,0.712891 -4.92187,2.138672 -1.21094,1.40625 -1.81641,3.769531 -1.81641,7.089843 0,3.691407 0.61523,6.298829 1.8457,7.822266 1.25,1.5234375 2.91992,2.2851562 5.00977,2.2851562 1.5625,0 2.8418,-0.4394531 3.83789,-1.3183592 0.99609,-0.898437 1.69922,-2.431641 2.10938,-4.59961 l 8.08593,1.376954 c -0.83984,3.7109373 -2.45117,6.5136715 -4.83398,8.4082027 -2.38281,1.8945313 -5.57617,2.8417969 -9.58008,2.8417969 -4.55078,0 -8.18359,-1.4355469 -10.89844,-4.3066406 -2.69531,-2.871094 -4.04297,-6.845703 -4.04297,-11.923828 0,-5.136719 1.35742,-9.130859 4.07227,-11.982422 2.71485,-2.871094 6.38672,-4.306641 11.01562,-4.306641 3.78907,0 6.79688,0.820313 9.02344,2.460938 2.24609,1.621093 3.85742,4.101562 4.83399,7.441406 z m 24.25781,12.011719 8.20312,1.376953 c -1.05469,3.0078125 -2.72461,5.3027343 -5.00976,6.8847656 -2.26563,1.5625 -5.10742,2.34375 -8.52539,2.34375 -5.41016,0 -9.41407,-1.7675781 -12.01172,-5.3027344 -2.05078,-2.8320312 -3.07617,-6.4062502 -3.07617,-10.7226562 0,-5.15625 1.34766,-9.189453 4.04297,-12.099609 2.69531,-2.929688 6.10351,-4.394532 10.22461,-4.394532 4.6289,0 8.28124,1.533203 10.95703,4.59961 2.67578,3.046875 3.95508,7.724609 3.83789,14.033203 h -20.625 c 0.0586,2.441406 0.72266,4.345703 1.99218,5.71289 1.26953,1.3476566 2.85157,2.0214849 4.7461,2.0214849 1.28906,0 2.37304,-0.3515625 3.25195,-1.0546875 0.87891,-0.7031254 1.54297,-1.8359374 1.99219,-3.3984374 z m 0.46875,-8.320313 c -0.0586,-2.382812 -0.67383,-4.189453 -1.8457,-5.419922 -1.17188,-1.25 -2.59766,-1.875 -4.27735,-1.875 -1.79687,0 -3.28125,0.654297 -4.45312,1.962891 -1.17188,1.308594 -1.74805,3.085938 -1.72852,5.332031 z"
       id="text21"
       style="fill:#444444"
       aria-label="_source"
       sodipodi:nodetypes="ccccccccscscccsssscccscscccsssccsscscscsccsssscscssscccssssccsccsccsccccccccccsccsccsccccscscscccsscscscccccscscsccccsscccsscc" />
  </g>
</svg>
