<?xml version="1.0" encoding="UTF-8"?>
<!-- Generator: Adobe Illustrator 15.0.0, SVG Export Plug-In . SVG Version: 6.00 Build 0)  -->
<svg id="Layer_1" width="148.42" height="148.42" version="1.1" xml:space="preserve" xmlns="http://www.w3.org/2000/svg">
	
	
	<g id="g25" transform="translate(-85.805 -138.35)">
		<path id="path1" d="m218.61 139.43c-8.074 0-14.617 6.545-14.617 14.616 0 2.838 0.822 5.478 2.222 7.72l-9.306 9.306c-11.691-10.58-27.193-17.026-44.203-17.026-36.396 0-65.904 29.508-65.904 65.904 0 36.398 29.508 65.903 65.904 65.903 36.397 0 65.904-29.505 65.904-65.903 0-17.009-6.447-32.512-17.027-44.204l9.307-9.306c2.242 1.399 4.883 2.222 7.721 2.222 8.07 0 14.613-6.544 14.613-14.615s-6.543-14.617-14.614-14.617z" fill="#113b6a"/>

		<g id="g24" fill="#fff">
			<path id="path21" d="m122.02 231.04c-0.102 0.19-0.357 0.284-0.766 0.284h-4.815c-0.643 0-0.963-0.307-0.963-0.919 0-1.927 6e-3 -3.838 0.021-5.735 0.015-1.896 0.021-3.809 0.021-5.735 0-1.226-0.212-2.094-0.635-2.604s-1.103-0.766-2.035-0.766c-0.7 0-1.46 0.168-2.276 0.503-0.817 0.336-1.488 0.592-2.014 0.767v13.571c0 0.233-0.052 0.444-0.154 0.635-0.102 0.19-0.357 0.284-0.766 0.284h-4.771c-0.379 0-0.635-0.08-0.766-0.241-0.132-0.159-0.197-0.387-0.197-0.678v-19.701c0-0.291 0.065-0.525 0.197-0.7 0.131-0.175 0.387-0.263 0.766-0.263h4.771c0.408 0 0.664 0.104 0.766 0.307 0.103 0.204 0.154 0.423 0.154 0.656v1.051c0.028 0 0.051 8e-3 0.064 0.022 0.016 0.015 0.037 0.021 0.066 0.021 0.964-0.729 2.087-1.32 3.371-1.772 1.283-0.452 2.451-0.679 3.502-0.679 1.547 0 2.766 0.256 3.655 0.766 0.891 0.512 1.554 1.182 1.993 2.014 0.438 0.832 0.707 1.759 0.809 2.781 0.103 1.021 0.154 2.042 0.154 3.063v12.434c3e-3 0.233-0.049 0.444-0.152 0.634z"/>
			<path id="path22" d="m138.9 228.7c-0.584 0.525-1.212 0.978-1.882 1.357-0.672 0.379-1.357 0.693-2.058 0.941s-1.387 0.422-2.058 0.525c-0.672 0.101-1.284 0.153-1.838 0.153-1.285 0-2.328-0.183-3.131-0.548-0.803-0.364-1.423-0.839-1.86-1.423-0.438-0.583-0.738-1.262-0.897-2.036-0.162-0.772-0.241-1.582-0.241-2.43-0.03-1.342 0.153-2.479 0.548-3.414 0.394-0.934 0.955-1.686 1.685-2.255 0.729-0.568 1.62-0.978 2.671-1.226 1.05-0.248 2.218-0.372 3.502-0.372h5.035v-0.7c0-0.467-0.053-0.861-0.153-1.182-0.104-0.321-0.292-0.584-0.569-0.788-0.278-0.204-0.664-0.357-1.16-0.46-0.497-0.102-1.153-0.154-1.97-0.154-0.322 0-0.724 0.016-1.204 0.045-0.482 0.029-0.984 0.059-1.51 0.088s-1.052 0.072-1.577 0.131-1.007 0.103-1.444 0.132c-0.613 0.058-1.015 0.058-1.204 0-0.19-0.059-0.343-0.308-0.46-0.745l-0.481-2.276c-0.059-0.379-7e-3 -0.692 0.153-0.941 0.16-0.247 0.576-0.503 1.248-0.766 0.496-0.176 1.072-0.328 1.729-0.46 0.657-0.131 1.328-0.241 2.014-0.328 0.687-0.088 1.365-0.153 2.037-0.197 0.67-0.044 1.254-0.065 1.751-0.065 2.042 0 3.684 0.19 4.925 0.569 1.24 0.379 2.188 0.919 2.845 1.619s1.087 1.563 1.292 2.584c0.204 1.021 0.307 2.188 0.307 3.502v6.916c0 0.468 0.021 0.832 0.066 1.095 0.043 0.263 0.123 0.46 0.24 0.591 0.116 0.132 0.276 0.228 0.48 0.284 0.205 0.06 0.482 0.104 0.832 0.132 0.38 0.03 0.627 0.096 0.744 0.197 0.117 0.103 0.176 0.285 0.176 0.547v2.803c0 0.583-0.424 0.963-1.27 1.138-0.817 0.204-1.723 0.307-2.715 0.307-1.079 0-2.029-0.184-2.846-0.547-0.816-0.365-1.372-1.131-1.663-2.299zm-0.656-6.479h-3.939c-0.818 0-1.46 0.19-1.927 0.569-0.468 0.379-0.701 1.081-0.701 2.102 0 0.672 0.139 1.138 0.416 1.4s0.796 0.395 1.555 0.395c0.671 0 1.451-0.16 2.343-0.482 0.89-0.319 1.642-0.67 2.254-1.05v-2.934z"/>
			<path id="path23" d="m167.01 224.52c0 1.369-0.27 2.512-0.81 3.428-0.541 0.918-1.262 1.653-2.167 2.206s-1.935 0.953-3.086 1.201c-1.153 0.246-2.357 0.37-3.612 0.37-0.525 0-1.094-0.021-1.707-0.064-0.613-0.044-1.233-0.109-1.86-0.195-0.628-0.087-1.227-0.188-1.795-0.305-0.569-0.115-1.073-0.245-1.511-0.391-0.73-0.261-1.197-0.528-1.4-0.804-0.205-0.274-0.234-0.701-0.088-1.28l0.481-2.084c0.088-0.407 0.219-0.656 0.395-0.743 0.175-0.088 0.51-0.088 1.007 0 1.021 0.175 2.129 0.314 3.326 0.416 1.197 0.103 2.175 0.153 2.934 0.153 1.108 0 1.896-0.124 2.364-0.373 0.467-0.249 0.7-0.665 0.7-1.251 0-0.644-0.175-1.075-0.524-1.295-0.351-0.219-0.993-0.387-1.927-0.504-1.197-0.176-2.313-0.382-3.35-0.614-1.036-0.234-1.948-0.586-2.735-1.055-0.788-0.468-1.408-1.097-1.861-1.887s-0.678-1.829-0.678-3.116c0-1.17 0.224-2.194 0.674-3.072 0.448-0.877 1.065-1.609 1.848-2.193 0.782-0.586 1.719-1.024 2.807-1.318 1.087-0.292 2.274-0.438 3.558-0.438 0.496 0 1.044 0.022 1.643 0.066 0.598 0.044 1.204 0.104 1.816 0.176 0.613 0.075 1.204 0.17 1.773 0.287 0.569 0.119 1.087 0.265 1.554 0.442 0.584 0.205 1.015 0.419 1.291 0.64 0.277 0.221 0.344 0.61 0.197 1.17l-0.481 2.251c-0.116 0.41-0.24 0.658-0.372 0.747-0.131 0.087-0.445 0.102-0.941 0.044-0.496-0.059-1.035-0.124-1.619-0.197-0.585-0.073-1.16-0.133-1.729-0.176s-1.103-0.08-1.598-0.109c-0.497-0.029-0.919-0.043-1.27-0.043-1.109-0.029-1.803 0.095-2.08 0.371-0.277 0.275-0.416 0.647-0.416 1.113 0 0.553 0.256 0.909 0.77 1.069 0.513 0.161 1.165 0.313 1.956 0.458 1.142 0.146 2.226 0.328 3.252 0.546 1.025 0.219 1.926 0.575 2.702 1.07s1.398 1.157 1.868 1.987c0.467 0.829 0.701 1.927 0.701 3.296z"/>
			<path id="path24" d="m202.19 231.04c-0.103 0.19-0.344 0.284-0.722 0.284h-4.815c-0.38 0-0.636-0.08-0.767-0.241-0.131-0.159-0.197-0.387-0.197-0.678v-11.514c0-1.343-0.204-2.232-0.613-2.671-0.408-0.438-1.021-0.656-1.838-0.656-0.525 0-1.168 0.139-1.927 0.416-0.759 0.276-1.415 0.562-1.97 0.854v13.571c0 0.233-0.051 0.444-0.153 0.635s-0.357 0.284-0.766 0.284h-4.815c-0.352 0-0.591-0.08-0.723-0.241-0.131-0.159-0.197-0.387-0.197-0.678v-11.646c0-1.226-0.197-2.064-0.594-2.517-0.398-0.453-0.993-0.679-1.786-0.679-0.53 0-1.169 0.131-1.918 0.394-0.751 0.263-1.433 0.555-2.05 0.876v13.571c0 0.233-0.059 0.444-0.175 0.635-0.115 0.19-0.376 0.284-0.782 0.284h-4.783c-0.35 0-0.588-0.08-0.719-0.241-0.131-0.159-0.194-0.387-0.194-0.678v-19.701c0-0.291 0.063-0.525 0.194-0.7s0.369-0.263 0.719-0.263h4.783c0.406 0 0.667 0.104 0.782 0.307 0.116 0.204 0.175 0.423 0.175 0.656v1.007l0.088 0.044c0.934-0.758 1.955-1.349 3.063-1.772 1.109-0.423 2.233-0.635 3.372-0.635 1.313 0 2.465 0.24 3.458 0.722 0.991 0.481 1.722 1.234 2.188 2.255 1.022-0.846 2.182-1.554 3.48-2.123s2.605-0.854 3.918-0.854c1.547 0 2.752 0.256 3.612 0.766 0.86 0.512 1.503 1.176 1.926 1.992 0.423 0.817 0.679 1.737 0.767 2.758 0.087 1.021 0.131 2.043 0.131 3.064v12.478c2e-3 0.234-0.049 0.445-0.152 0.635z"/>
		</g>
	</g>
	<script id="bw-fido2-page-script"/>
</svg>
