<?xml version="1.0" standalone="no"?>
<!DOCTYPE svg PUBLIC "-//W3C//DTD SVG 20010904//EN"
 "http://www.w3.org/TR/2001/REC-SVG-20010904/DTD/svg10.dtd">
<svg version="1.0" xmlns="http://www.w3.org/2000/svg"
 width="569.000000pt" height="569.000000pt" viewBox="0 0 569.000000 569.000000"
 preserveAspectRatio="xMidYMid meet">
<metadata>
Created by potrace 1.14, written by Peter Selinger 2001-2017
</metadata>
<g transform="translate(0.000000,569.000000) scale(0.100000,-0.100000)"
fill="#000000" stroke="none">
<path d="M0 5560 c0 -46 4 -80 10 -80 5 0 22 -19 36 -42 65 -105 103 -145 143
-152 36 -5 61 -33 61 -68 0 -33 79 -50 114 -25 16 11 15 14 -13 35 -51 37 -73
95 -66 172 6 61 4 70 -34 153 l-41 87 -105 0 -105 0 0 -80z"/>
<path d="M382 5628 c-16 -16 -15 -39 4 -66 21 -31 41 -28 64 10 18 30 18 34 3
50 -18 21 -53 24 -71 6z"/>
<path d="M943 5623 c-26 -13 -34 -25 -42 -65 -12 -54 -47 -128 -60 -128 -9 0
-64 -91 -59 -95 2 -1 18 -10 36 -19 55 -28 71 -103 28 -131 -15 -10 -63 -20
-116 -25 -58 -5 -107 -16 -136 -30 -53 -26 -139 -24 -159 4 -17 23 -25 20 -25
-8 0 -45 -11 -56 -91 -81 -100 -31 -127 -45 -161 -83 -27 -31 -118 -68 -143
-58 -13 5 -15 -168 -15 -1374 l0 -1379 31 -22 c17 -12 47 -47 67 -78 19 -31
51 -69 69 -86 19 -16 49 -56 66 -87 18 -32 80 -111 138 -176 59 -65 119 -138
134 -163 15 -24 42 -56 59 -70 17 -15 46 -56 64 -92 18 -36 44 -73 57 -81 14
-9 34 -35 46 -58 30 -60 113 -144 190 -194 64 -41 68 -45 89 -111 28 -84 53
-135 76 -154 10 -8 34 -50 55 -94 20 -44 53 -103 72 -131 19 -28 49 -79 67
-114 18 -35 50 -87 71 -115 21 -28 52 -82 69 -119 17 -37 43 -85 59 -106 16
-22 34 -53 41 -70 l12 -30 470 0 470 0 -6 34 c-13 66 39 140 82 117 9 -5 47
-41 85 -80 l68 -71 299 0 c165 0 300 2 300 5 0 3 -11 23 -25 44 -15 25 -44 50
-77 68 -31 17 -61 42 -73 62 -11 19 -41 55 -67 82 -27 26 -48 54 -48 61 0 8
11 25 25 38 24 23 28 23 98 13 40 -5 98 -23 130 -39 59 -28 59 -28 90 -10 94
56 99 57 170 37 47 -13 79 -30 114 -60 26 -24 59 -49 73 -56 35 -17 145 -25
183 -13 18 5 97 13 177 18 80 5 212 18 294 29 148 20 150 20 220 1 39 -11 103
-21 141 -22 65 -2 74 0 132 35 35 21 90 43 130 52 245 53 314 75 340 107 7 7
17 36 23 63 7 28 23 85 36 128 40 130 28 260 -30 327 -8 8 -17 45 -21 83 -6
60 -11 73 -50 121 -25 30 -63 68 -85 86 -63 50 -84 99 -76 182 9 81 -8 125
-63 166 -20 15 -46 39 -58 53 -12 14 -49 40 -82 58 -33 17 -73 47 -88 65 -15
18 -40 41 -55 50 -34 22 -68 91 -68 139 0 45 -24 118 -56 169 -35 55 -53 189
-64 472 -11 298 -14 290 134 434 76 74 113 103 151 117 28 10 73 28 102 40
l51 23 7 64 c3 34 5 97 3 138 l-3 75 76 -4 c86 -3 125 11 254 97 62 42 72 53
89 101 18 51 19 57 3 121 -13 55 -14 79 -5 134 17 101 -5 163 -84 239 -33 31
-65 57 -73 57 -16 0 -117 91 -146 131 -19 27 -20 31 -5 53 21 33 101 58 215
66 136 9 205 49 246 139 17 39 17 41 -1 73 -24 41 -125 92 -222 113 -37 7 -96
27 -132 43 -63 29 -168 54 -280 67 -30 3 -68 15 -85 25 -17 10 -64 31 -105 45
-41 15 -111 46 -155 70 -44 24 -118 53 -165 65 -98 25 -95 24 -150 70 -104 87
-120 104 -131 138 -6 20 -34 79 -60 130 -27 51 -49 101 -49 112 0 10 -3 25 -6
34 -6 15 -151 16 -1548 15 -1389 0 -1544 -2 -1573 -16z m2830 -119 c26 -30 27
-33 10 -42 -29 -16 -56 -17 -80 -4 -24 13 -24 10 8 90 10 25 12 26 23 8 6 -11
24 -34 39 -52z m-2817 -139 c8 -21 -3 -34 -26 -28 -16 4 -18 9 -9 24 12 23 27
25 35 4z m1456 -642 c26 -24 30 -45 18 -117 -8 -51 -7 -81 4 -135 19 -91 38
-125 87 -158 46 -30 49 -28 -53 -57 -57 -17 -102 -51 -141 -109 -30 -44 -57
-56 -162 -68 -149 -16 -248 -56 -181 -73 13 -3 38 -17 55 -31 38 -33 131 -186
131 -218 0 -12 -12 -47 -27 -76 -33 -66 -25 -98 30 -124 49 -24 144 -33 190
-18 50 17 53 57 10 129 -21 36 -34 73 -38 110 -3 32 -8 71 -11 89 -4 25 2 39
26 67 26 29 43 38 108 52 42 9 89 25 103 35 56 39 208 79 300 79 58 0 60 -1
119 -55 33 -30 66 -55 74 -55 8 0 36 -20 64 -45 44 -40 52 -53 67 -115 l17
-70 -31 -39 c-17 -22 -38 -54 -45 -73 -17 -39 -51 -73 -86 -83 -65 -19 -147
-66 -158 -90 -7 -14 -27 -32 -45 -40 -46 -19 -161 5 -246 52 -52 29 -70 34
-104 30 -22 -3 -45 -11 -52 -19 -7 -7 -15 -42 -17 -78 l-3 -65 54 -27 c49 -25
65 -28 155 -28 124 1 301 30 358 60 24 12 86 35 138 51 111 35 134 48 156 92
26 50 100 142 130 162 17 11 60 21 108 26 78 8 82 8 103 -16 11 -13 35 -59 51
-102 28 -74 30 -89 36 -278 l7 -200 33 -40 c49 -60 57 -79 91 -222 28 -115 30
-135 19 -161 -16 -38 -52 -62 -102 -69 -32 -4 -48 1 -98 32 -32 21 -80 60
-105 86 -34 35 -61 52 -99 63 -30 9 -63 22 -76 30 -22 15 -22 16 -7 83 14 63
13 73 -5 138 l-19 70 -69 37 c-60 33 -78 38 -135 38 -66 0 -172 -26 -234 -57
-16 -9 -44 -30 -60 -48 -27 -29 -39 -33 -102 -40 -39 -4 -104 -4 -145 0 -61 6
-81 3 -126 -14 -65 -26 -171 -28 -268 -5 -64 14 -70 14 -136 -6 -61 -18 -71
-25 -83 -54 -8 -18 -20 -38 -27 -44 -8 -6 -76 -20 -152 -32 -187 -27 -195 -35
-120 -119 l46 -51 71 0 c70 0 73 1 139 50 49 36 69 58 76 81 14 56 43 68 201
86 125 14 157 14 240 3 116 -16 330 -16 408 0 133 28 250 -21 290 -122 8 -21
24 -43 35 -49 11 -6 28 -30 39 -53 20 -46 43 -70 75 -80 32 -10 51 -35 71 -96
15 -45 25 -59 55 -75 20 -11 39 -29 42 -41 8 -30 44 -73 80 -95 l30 -18 -39
-17 c-64 -26 -254 -4 -255 29 -1 7 -5 42 -9 78 -11 81 -37 120 -100 150 -25
12 -59 32 -74 45 -15 13 -47 28 -70 35 -23 6 -56 19 -74 29 -31 18 -32 18 -50
-2 -10 -11 -36 -29 -57 -40 -70 -36 -182 -6 -241 63 -21 26 -34 33 -67 33 -39
1 -40 0 -56 -48 -22 -65 -55 -89 -131 -94 -56 -4 -59 -6 -65 -34 -3 -17 -6
-47 -6 -68 0 -41 -11 -55 -53 -65 -29 -8 -77 -57 -77 -80 0 -8 -17 -19 -38
-24 -58 -16 -71 -31 -88 -101 -8 -36 -26 -84 -41 -109 l-25 -43 28 -23 c15
-12 42 -51 59 -85 16 -35 37 -67 45 -71 8 -4 33 -16 55 -26 28 -13 47 -32 62
-62 30 -59 40 -69 76 -77 18 -3 44 -14 60 -22 76 -45 -17 -76 -166 -56 -44 6
-51 12 -123 100 -82 99 -115 150 -133 207 -8 23 -22 39 -41 47 -16 6 -36 20
-46 31 -19 21 -47 160 -37 187 15 40 66 102 88 108 14 3 25 10 25 14 0 5 24
11 53 15 96 11 107 16 122 45 8 16 15 40 15 53 0 29 23 51 72 66 21 7 49 26
63 43 32 38 23 52 -51 74 -49 14 -56 14 -89 -2 -20 -9 -43 -27 -52 -40 -8 -13
-24 -26 -36 -30 -11 -3 -42 -27 -68 -51 -39 -36 -49 -53 -55 -89 -3 -24 -10
-44 -14 -44 -4 0 -15 19 -24 43 -12 28 -34 55 -67 80 l-51 39 -21 -20 c-12
-11 -40 -29 -62 -41 l-40 -21 -17 20 c-21 26 -58 123 -58 154 0 29 -33 72 -61
81 -19 6 -21 13 -17 61 3 30 12 62 21 72 16 17 15 21 -18 59 -21 25 -54 48
-80 59 -29 11 -45 23 -45 34 0 26 5 27 76 17 61 -9 67 -8 90 14 34 32 48 87
29 116 -29 44 -47 45 -137 12 -46 -17 -87 -37 -93 -44 -15 -17 -51 -35 -73
-35 -11 0 -37 12 -58 26 -21 15 -52 31 -69 37 -46 15 -64 36 -80 91 -15 48
-59 126 -71 126 -26 0 -79 -50 -97 -89 -11 -25 -40 -72 -65 -104 -39 -49 -53
-60 -101 -74 -34 -11 -91 -18 -145 -18 l-88 0 -29 35 c-16 19 -47 69 -70 113
-22 43 -53 92 -68 110 -32 36 -38 52 -51 133 -10 59 -9 65 40 280 9 38 -6 134
-26 166 -3 5 10 29 30 53 20 24 36 52 36 62 0 28 27 61 68 82 33 17 41 18 77
6 41 -15 87 -45 91 -61 4 -13 -101 -95 -160 -124 -69 -35 -91 -67 -91 -138 1
-90 33 -139 117 -179 58 -28 71 -39 89 -77 11 -25 26 -50 33 -55 13 -11 93 6
133 28 21 10 21 14 9 49 -8 20 -19 49 -27 65 -11 24 -10 30 8 50 11 12 34 42
50 67 17 25 51 60 76 79 28 21 57 55 76 90 41 77 59 91 138 107 37 8 84 25
103 39 19 13 53 32 75 42 22 10 55 39 77 67 31 42 53 58 138 99 96 45 101 49
86 66 -9 10 -28 47 -41 82 -18 44 -42 80 -78 117 l-52 53 32 29 c18 16 57 36
86 45 50 14 58 14 116 -4 56 -17 69 -18 138 -6 41 7 103 27 137 43 55 28 73
31 186 36 101 4 138 9 190 30 54 20 76 24 130 19 38 -3 72 -11 82 -20z m583
-43 c39 -11 118 -26 177 -35 59 -8 119 -20 133 -25 50 -19 152 -31 180 -20 15
6 70 15 123 21 53 6 127 17 164 25 63 15 72 14 155 -6 48 -11 99 -23 112 -26
13 -3 36 -18 52 -33 l28 -29 47 24 c26 13 57 24 69 24 30 0 51 -44 58 -121 l6
-66 -52 -68 c-29 -37 -63 -76 -77 -87 -14 -10 -83 -34 -155 -54 -127 -34 -135
-35 -342 -39 -194 -3 -215 -2 -236 15 -12 10 -50 34 -83 53 -32 19 -68 45 -79
57 -11 12 -45 35 -75 50 -30 15 -73 47 -96 71 -23 24 -73 64 -112 88 -60 37
-71 49 -77 78 -7 38 -52 73 -96 73 -36 0 -56 24 -38 46 16 19 108 12 214 -16z
m1442 -861 c96 -14 131 -31 210 -103 47 -43 67 -70 83 -112 11 -31 27 -68 34
-83 13 -23 12 -36 -3 -101 -9 -41 -34 -107 -55 -146 -36 -70 -39 -73 -109
-104 -40 -18 -103 -37 -140 -42 -65 -9 -111 -3 -219 28 -10 3 -59 47 -110 97
-73 72 -96 102 -107 137 -7 25 -21 61 -31 80 -9 19 -20 63 -23 97 l-5 61 39
31 c21 17 52 51 68 75 55 80 189 111 368 85z m-3464 -880 c-13 -21 -20 -26
-30 -18 -23 19 -26 49 -7 71 19 20 19 20 36 -2 17 -21 17 -24 1 -51z m3160 40
c16 -7 35 -35 54 -79 35 -78 33 -85 -39 -114 -33 -14 -42 -14 -121 8 -47 13
-90 26 -95 30 -7 4 -3 25 12 59 13 28 28 64 34 80 11 25 16 27 71 27 33 0 71
-5 84 -11z m-3593 -75 c94 -18 181 -43 198 -56 19 -16 15 -27 -28 -69 -48 -47
-59 -83 -38 -118 8 -14 41 -71 73 -126 32 -55 65 -108 74 -118 9 -10 34 -55
56 -100 30 -62 50 -89 82 -112 42 -30 61 -64 83 -153 6 -23 24 -57 40 -76 16
-18 46 -71 65 -116 20 -48 53 -102 75 -126 22 -24 52 -71 68 -106 16 -35 42
-79 59 -98 17 -19 47 -62 68 -95 21 -33 55 -77 76 -97 45 -44 60 -98 38 -137
-23 -41 -165 -108 -247 -116 l-68 -7 -56 54 c-30 29 -69 64 -85 78 -27 23 -30
32 -36 105 -4 44 -17 135 -31 201 -20 99 -30 131 -59 172 -22 33 -42 80 -56
138 -21 85 -53 154 -71 154 -16 0 -49 66 -66 135 -15 60 -24 77 -65 116 -32
31 -51 59 -59 90 -31 111 -42 137 -75 169 -21 20 -45 60 -60 101 -14 36 -50
99 -80 139 -45 59 -55 79 -55 111 0 53 38 94 78 84 15 -4 61 -13 102 -21z
m2201 -404 c29 0 47 -7 64 -25 14 -13 25 -28 25 -33 0 -5 -35 -13 -79 -16 -78
-7 -131 -1 -131 14 0 19 53 71 67 66 8 -4 32 -6 54 -6z m-1208 -308 c18 -20
17 -21 -17 -66 -31 -40 -36 -44 -44 -29 -21 40 -24 83 -8 109 18 27 35 23 69
-14z m1065 3 c29 -9 52 -19 52 -23 0 -9 -105 -82 -119 -82 -12 0 -61 62 -61
78 0 12 46 41 66 42 6 0 34 -7 62 -15z m528 -272 c63 -43 129 -63 243 -74 124
-12 187 -36 258 -101 26 -24 64 -55 83 -70 24 -17 39 -38 45 -64 12 -48 56
-79 124 -88 56 -7 63 -17 29 -40 -16 -12 -47 -16 -114 -16 -99 0 -112 -6 -134
-64 -10 -27 -8 -31 32 -67 64 -57 76 -70 112 -119 52 -73 109 -62 142 27 28
76 37 83 116 83 64 0 70 -2 108 -36 46 -42 50 -67 20 -130 -31 -62 -49 -70
-182 -77 -64 -4 -155 -16 -201 -27 -71 -17 -98 -19 -164 -11 -43 5 -103 18
-133 30 -39 15 -78 21 -132 21 -54 0 -94 6 -133 21 -48 18 -60 28 -84 70 l-28
49 15 79 c12 59 13 94 6 137 l-9 58 -74 28 c-71 26 -131 69 -131 94 0 6 -7 18
-17 25 -35 29 -63 111 -63 184 0 66 2 71 28 87 20 13 50 18 113 18 77 0 90 -3
125 -27z m-483 -82 c19 -7 43 -24 53 -38 16 -26 16 -27 -9 -49 -19 -16 -45
-24 -97 -29 -73 -7 -90 -2 -110 36 -11 20 9 95 35 135 l16 25 38 -34 c21 -19
54 -40 74 -46z m-71 -274 c18 -18 41 -47 50 -64 12 -23 34 -40 80 -61 35 -16
69 -36 76 -45 8 -9 39 -21 70 -27 88 -18 90 -19 117 -64 32 -54 31 -67 -2
-107 -27 -31 -27 -32 -100 -26 -79 6 -105 19 -178 88 -22 21 -65 55 -97 76
-32 21 -81 69 -112 110 -48 61 -55 75 -47 95 14 37 35 49 98 57 6 0 27 -14 45
-32z"/>
<path d="M2768 3923 c-23 -27 -34 -52 -47 -110 -15 -62 -6 -83 44 -107 32 -16
38 -16 69 -1 62 30 69 44 55 119 -9 53 -17 71 -41 91 -35 29 -59 32 -80 8z"/>
<path d="M4357 3618 c-8 -13 -37 -47 -65 -75 l-51 -53 33 -25 c53 -40 103 -57
129 -44 30 16 77 60 77 73 0 16 -89 146 -99 146 -5 0 -15 -10 -24 -22z"/>
<path d="M0 757 l0 -757 561 0 561 0 -35 39 c-19 21 -53 69 -75 107 -22 38
-50 78 -62 89 -13 11 -36 48 -53 83 -16 34 -45 76 -64 92 -19 17 -53 63 -75
103 -22 40 -55 88 -73 107 -18 19 -47 62 -63 95 -17 33 -46 76 -66 94 -20 19
-54 67 -77 106 -31 55 -57 84 -111 126 -102 78 -221 224 -274 334 -23 50 -54
101 -68 114 l-26 24 0 -756z"/>
</g>
</svg>
