<?xml version="1.0" encoding="UTF-8" standalone="no"?>
<!-- Created with Inkscape (http://www.inkscape.org/) -->

<svg
   width="114mm"
   height="42mm"
   viewBox="0 0 114 42"
   version="1.1"
   id="svg1"
   inkscape:export-filename="logo.png"
   inkscape:export-xdpi="96"
   inkscape:export-ydpi="96"
   inkscape:version="1.3.2 (091e20ef0f, 2023-11-25, custom)"
   sodipodi:docname="logo_static.svg"
   xmlns:inkscape="http://www.inkscape.org/namespaces/inkscape"
   xmlns:sodipodi="http://sodipodi.sourceforge.net/DTD/sodipodi-0.dtd"
   xmlns="http://www.w3.org/2000/svg"
   xmlns:svg="http://www.w3.org/2000/svg">
  <sodipodi:namedview
     id="namedview1"
     pagecolor="#ffffff"
     bordercolor="#666666"
     borderopacity="1.0"
     inkscape:showpageshadow="2"
     inkscape:pageopacity="0.0"
     inkscape:pagecheckerboard="0"
     inkscape:deskcolor="#d1d1d1"
     inkscape:document-units="mm"
     showguides="false"
     inkscape:zoom="2"
     inkscape:cx="246"
     inkscape:cy="91.5"
     inkscape:window-width="1920"
     inkscape:window-height="1052"
     inkscape:window-x="1080"
     inkscape:window-y="420"
     inkscape:window-maximized="1"
     inkscape:current-layer="layer1" />
  <defs
     id="defs1" />
  <g
     inkscape:label="Layer 1"
     inkscape:groupmode="layer"
     id="layer1">
    <path
       style="font-weight:bold;font-size:39.6875px;line-height:1.25;font-family:Verdana;-inkscape-font-specification:Verdana;letter-spacing:-2.20927px;fill:#450084;stroke-width:0.264583"
       d="m 46.085918,22.225904 q 0,1.899109 -0.678253,3.565674 -0.678253,1.647187 -2.015381,2.790528 -1.414642,1.220855 -3.410644,1.899109 -1.996002,0.658874 -4.941559,0.658874 -1.996002,0 -3.75946,-0.155029 -1.763459,-0.135651 -3.100586,-0.406952 v -5.852356 h 0.697631 q 0.930176,0.348816 1.937867,0.658874 1.00769,0.29068 2.577362,0.29068 2.034759,0 3.119964,-0.542602 1.104584,-0.542603 1.569672,-1.511536 0.445709,-0.949554 0.503845,-2.073517 0.05814,-1.143341 0.05814,-2.906799 V 7.1493053 H 32.036388 V 1.8395519 h 14.04953 z M 81.122437,30.69438 H 73.719788 V 11.373854 L 68.371277,23.911848 H 63.235931 L 57.887421,11.373854 V 30.69438 H 50.872345 V 1.8395519 h 8.642883 L 66.00708,16.315413 72.479553,1.8395519 h 8.642884 z M 111.54683,20.249281 q 0,5.348511 -3.25561,8.197174 -3.25562,2.848663 -9.59244,2.848663 -6.336822,0 -9.592438,-2.848663 -3.236236,-2.848663 -3.236236,-8.177795 V 1.8395519 h 7.480163 V 19.842329 q 0,3.003693 1.259613,4.476471 1.259613,1.472778 4.088898,1.472778 2.79053,0 4.06952,-1.414642 1.29837,-1.414642 1.29837,-4.534607 V 1.8395519 h 7.48016 z"
       id="text1"
       aria-label="JMU" />
    <path
       style="font-weight:bold;font-size:33.0729px;line-height:1.25;font-family:Verdana;-inkscape-font-specification:Verdana;fill:#cbb677;stroke-width:0.264583"
       d="m 26.105151,27.816832 q 0,5.749 -3.29437,9.140264 -3.294371,3.375116 -9.107967,3.375116 -5.7974462,0 -9.091817,-3.375116 -3.2943708,-3.391264 -3.2943708,-9.140264 0,-5.797446 3.2943708,-9.156413 3.2943708,-3.375115 9.091817,-3.375115 5.781298,0 9.091818,3.375115 3.310519,3.358967 3.310519,9.156413 z m -8.219778,6.088127 q 0.904337,-1.098124 1.340357,-2.58382 0.43602,-1.501846 0.43602,-3.520456 0,-2.163949 -0.500615,-3.681943 -0.500616,-1.517995 -1.308059,-2.45463 -0.823593,-0.968932 -1.905568,-1.404952 -1.065826,-0.436019 -2.228545,-0.436019 -1.178868,0 -2.228545,0.41987 -1.033528,0.419871 -1.9055671,1.388804 -0.8074438,0.904337 -1.3242078,2.503076 -0.5006152,1.582589 -0.5006152,3.681943 0,2.147801 0.4844663,3.665795 0.5006152,1.501846 1.308059,2.454629 0.8074438,0.952784 1.8894188,1.404953 1.081974,0.452168 2.276991,0.452168 1.195017,0 2.276992,-0.452168 1.081975,-0.468318 1.889418,-1.43725 z m 23.819594,6.394955 q -2.680714,0 -4.957705,-0.791295 -2.260843,-0.791295 -3.89188,-2.357736 -1.631036,-1.566441 -2.535373,-3.908028 -0.888188,-2.341587 -0.888188,-5.409874 0,-2.858351 0.85589,-5.183789 0.85589,-2.325438 2.486927,-3.988773 1.566441,-1.598738 3.87573,-2.470778 2.325438,-0.872039 5.070747,-0.872039 1.517995,0 2.729161,0.177638 1.227314,0.161488 2.260842,0.436019 1.081975,0.306829 1.954014,0.694402 0.888189,0.371424 1.550292,0.694402 v 5.829744 h -0.71055 q -0.452169,-0.387573 -1.14657,-0.920486 -0.678253,-0.532913 -1.550292,-1.049677 -0.888189,-0.516764 -1.921717,-0.872039 -1.033528,-0.355275 -2.212396,-0.355275 -1.308059,0 -2.486927,0.41987 -1.178868,0.403722 -2.180098,1.356506 -0.952784,0.920486 -1.550292,2.43848 -0.58136,1.517995 -0.58136,3.681944 0,2.260843 0.629806,3.778837 0.645955,1.517995 1.614888,2.390034 0.985081,0.888188 2.196247,1.275761 1.211166,0.371424 2.390034,0.371424 1.130421,0 2.228545,-0.339126 1.114272,-0.339127 2.050907,-0.920486 0.791295,-0.468318 1.469548,-1.00123 0.678253,-0.532913 1.114272,-0.920486 h 0.645955 v 5.749 q -0.904337,0.403722 -1.727929,0.758997 -0.823593,0.355275 -1.72793,0.613657 -1.178868,0.339127 -2.212396,0.516764 -1.033528,0.177638 -2.842202,0.177638 z"
       id="text2"
       aria-label="OC" />
    <path
       id="rect5"
       style="fill:#450084;stroke:#008080;stroke-width:0;stroke-linecap:round;stroke-linejoin:round;paint-order:markers fill stroke"
       d="M 38.644783,14.096921 H 46.08978 V 22.63675 H 38.644783 Z" />
    <text
       xml:space="preserve"
       style="font-style:normal;font-weight:normal;font-size:10.5833px;line-height:1.25;font-family:sans-serif;fill:#000000;fill-opacity:1;stroke:none;stroke-width:0.264583"
       x="8.0697908"
       y="-15.875001"
       id="text6"><tspan
         sodipodi:role="line"
         id="tspan6"
         style="stroke-width:0.264583"
         x="8.0697908"
         y="-15.875001" /></text>
  </g>
</svg>
